# xmcd CD database file
#
# Track frame offsets:
#	150
#	12895
#	28084
#	38121
#	52096
#	65101
#	77813
#	89453
#	102588
#	116775
#	129908
#	144554
#	157187
#	168169
#	180024
#	194465
#	207035
#	219009
#	232006
#	245006
#	258539
#	273997
#
# Disc length: 3780 seconds
#
# Revision: 0
# Processed by: cddbd v1.5.1PL0 Copyright (c) Steve Scherf et al.
# Submitted via: CDex 1.51
#
DISCID=3c0ec216
DTITLE=Django Reinhardt - Et le hot club de France
DYEAR=2004
DGENRE=Jazz
TTITLE0=On The Sunny Side Of The Street
TTITLE1=I Can't Give You Anything But Love
TTITLE2=Les Yeux Noirs
TTITLE3=After You've Gone
TTITLE4=Begin The Beguine
TTITLE5=Brazil
TTITLE6=Dinah
TTITLE7=For Sentimental Reasons
TTITLE8=Embraceable You
TTITLE9=Honeysuckle Rose
TTITLE10=Jeepers Creepers
TTITLE11=Miss Annabelle Lee
TTITLE12=Swing Guitars
TTITLE13=The Continental
TTITLE14=Tea For Two
TTITLE15=All Of Me
TTITLE16=I'll Never Smile Again
TTITLE17=Avalon
TTITLE18=Ton Doux Sourire
TTITLE19=In A Sentimental Mood
TTITLE20=Body And Soul
TTITLE21=What Is This Thing Called Love
EXTD=YEAR: 2004
EXTT0=
EXTT1=
EXTT2=
EXTT3=
EXTT4=
EXTT5=
EXTT6=
EXTT7=
EXTT8=
EXTT9=
EXTT10=
EXTT11=
EXTT12=
EXTT13=
EXTT14=
EXTT15=
EXTT16=
EXTT17=
EXTT18=
EXTT19=
EXTT20=
EXTT21=
PLAYORDER=
